P2
# Created by Paint Shop Pro
25 25
255
1 3 8 11 14 16 18 20 18 18 18 17 17 17 15 14 12 8 5 2 0 0 0 0 0 1 8 13 
17 20 22 24 23 21 19 19 19 19 18 16 14 12 9 6 4 2 1 1 0 0 5 12 17 21 24 
26 27 26 22 20 20 20 19 18 16 14 12 9 8 6 4 3 2 1 0 7 13 18 21 24 27 28 
24 20 17 17 18 17 16 14 12 10 11 10 8 6 4 3 2 1 7 13 17 20 22 25 23 19 
15 12 10 11 10 9 11 9 11 12 11 9 7 5 4 3 1 8 11 15 17 19 20 18 13 9 7 5 
3 2 3 5 8 10 11 10 9 7 6 5 3 1 6 9 12 15 16 17 13 7 5 3 2 0 0 1 2 5 8 9 
10 9 8 7 5 3 1 4 6 10 12 13 11 7 4 1 1 0 0 0 0 1 4 7 8 9 10 9 7 5 2 0 2 
5 6 8 8 6 5 2 1 0 0 0 0 0 2 5 7 8 9 10 9 7 3 0 0 1 3 5 6 7 6 5 4 1 0 0 
0 0 0 2 5 7 8 9 9 8 4 0 0 0 0 3 5 6 7 6 6 6 3 0 0 0 0 0 2 5 7 8 8 8 6 2 
0 0 0 0 2 5 6 6 6 6 6 4 1 0 0 0 0 2 5 7 8 8 8 6 2 0 0 0 0 1 4 6 6 6 6 5 
3 1 0 0 0 0 2 5 7 8 8 8 7 3 0 0 0 1 2 4 5 5 5 5 4 3 1 0 0 0 0 2 5 7 8 8 
8 7 4 1 0 0 3 3 5 6 4 4 4 3 2 1 0 0 0 0 1 4 7 8 8 8 7 4 1 0 0 4 6 6 8 7 
3 3 2 1 0 1 1 1 1 1 4 7 7 8 8 7 6 2 0 0 6 8 8 8 8 4 1 1 0 2 3 3 3 2 1 3 
6 7 8 8 7 6 3 0 0 8 8 8 8 7 5 2 0 3 5 5 5 4 3 2 2 5 7 7 8 7 6 4 1 0 8 8 
8 8 7 5 2 2 5 6 6 6 5 4 3 2 3 5 6 7 7 6 5 2 0 8 8 8 7 6 5 3 3 5 6 6 6 6 
5 3 1 2 5 6 6 6 5 4 3 1 7 7 7 6 5 4 3 3 5 6 6 6 6 5 3 1 1 4 5 5 5 4 4 3 
1 3 5 5 5 4 2 1 3 4 5 6 6 6 5 2 0 0 2 4 4 4 4 3 2 1 0 2 2 2 2 0 1 2 3 4 
5 5 5 3 0 0 0 1 3 3 3 3 2 2 1 0 0 0 0 0 0 0 1 2 3 3 3 2 0 0 0 0 0 1 2 2 
2 2 1 0 0 0 0 0 0 0 0 0 1 1 1 1 0 0 0 0 0 0 0 1 1 1 1 0 0 
